<?xml version="1.0" standalone="no"?>
<!DOCTYPE svg PUBLIC "-//W3C//DTD SVG 20010904//EN"
 "http://www.w3.org/TR/2001/REC-SVG-20010904/DTD/svg10.dtd">
<svg version="1.0" xmlns="http://www.w3.org/2000/svg"
 width="260.000000pt" height="260.000000pt" viewBox="0 0 260.000000 260.000000"
 preserveAspectRatio="xMidYMid meet">
<metadata>
Created by potrace 1.14, written by Peter Selinger 2001-2017
</metadata>
<g transform="translate(0.000000,260.000000) scale(0.100000,-0.100000)"
fill="#000000" stroke="none">
<path d="M1135 2585 c-175 -24 -288 -60 -447 -142 -50 -26 -111 -62 -135 -80
-24 -18 -45 -33 -48 -33 -6 0 -121 -107 -154 -143 -66 -73 -82 -92 -108 -131
-15 -22 -34 -47 -40 -54 -25 -26 -122 -239 -147 -322 -43 -142 -55 -230 -52
-405 4 -229 32 -344 131 -551 97 -201 255 -380 446 -506 212 -140 420 -206
674 -213 249 -7 424 33 648 147 54 28 103 55 110 62 7 6 25 20 41 30 44 28 83
63 175 156 344 348 458 887 285 1348 -30 78 -123 261 -144 282 -3 3 -18 23
-35 45 -148 200 -371 363 -613 449 -173 61 -403 85 -587 61z"/>
</g>
</svg>
